<svg xmlns="http://www.w3.org/2000/svg" height="48" viewBox="0 -960 960 960" width="48"><path fill="#c5c5c5" d="m381.077-356.846 30.462-29.462L317.846-480l91.693-92.692-30.231-29.462L257.923-480l123.154 123.154Zm198.615 0L702.077-480 579.692-603.154l-30.231 29.462L643.154-480l-93.693 93.692 30.231 29.462ZM215.384-147q-28.057 0-48.221-20.163Q147-187.327 147-215.384v-529.232q0-28.057 20.163-48.221Q187.327-813 215.384-813h529.232q28.057 0 48.221 20.163Q813-772.673 813-744.616v529.232q0 28.057-20.163 48.221Q772.673-147 744.616-147H215.384Zm0-43.769h529.232q9.23 0 16.923-7.692 7.692-7.693 7.692-16.923v-529.232q0-9.23-7.692-16.923-7.693-7.692-16.923-7.692H215.384q-9.23 0-16.923 7.692-7.692 7.693-7.692 16.923v529.232q0 9.23 7.692 16.923 7.693 7.692 16.923 7.692Zm-24.615-578.462v578.462-578.462Z"/></svg>