<svg xmlns="http://www.w3.org/2000/svg" 
    height="48" 
    width="48"
    viewBox="0 -960 960 960">
        <path 
            fill="#c5c5c5" 
            d="
                M606.154-184
                v-43.769h54.692
                q30.154 0 51.269-19.721 21.116-19.721 21.116-49.356
                v-84.846
                q0-35.385 21.577-63.039 21.577-27.654 57.5-36.577
                v-2.384
                q-35.923-4.693-57.5-31.962-21.577-27.269-21.577-62.654
                v-84.846
                q0-29.635-20.981-49.856
                t-51.404-20.221
                h-54.692V-776h65.692q43.616 0 73.885 30Q776-716 776-673.154v84.846q0 30.423 21.25 50.519t51.442 20.096H856v74.386h-7.308q-30.192 0-51.442 20.596T776-371.692v84.846Q776-244 745.616-214q-30.385 30-73.77 30h-65.692Zm-317 0q-43.782 0-74.468-30Q184-244 184-286.846v-84.846q0-30.423-21.75-51.019t-52.942-20.596H104v-74.386h5.308q31.192 0 52.942-20.096T184-588.308v-84.846Q184-716 214.769-746q30.769-30 74.385-30h66.461v42.769h-56.461q-30.154 0-50.769 20.221-20.616 20.221-20.616 49.856v84.846q0 35.385-22.077 62.654-22.077 27.269-57 31.962v2.384q34.923 8.821 57 36.526 22.077 27.705 22.077 63.09v84.846q0 29.635 20.491 49.356 20.49 19.721 50.894 19.721h56.461V-184h-66.461Z"/></svg>