<svg xmlns="http://www.w3.org/2000/svg" height="48" viewBox="0 -960 960 960" width="48"><path fill="#c5c5c5" d="M344-361.769 225.769-480 344-598.231 374.231-567l-87 87 87 87L344-361.769Zm272 0L585.769-393l87-87-87-87L616-598.231 734.231-480 616-361.769ZM212.384-144q-27.782 0-48.083-20.301T144-212.384v-143.231h43.769v143.231q0 9.23 7.692 16.923 7.693 7.692 16.923 7.692h143.231V-144H212.384Zm392.001 0v-43.769h143.231q9.23 0 16.923-7.692 7.692-7.693 7.692-16.923v-143.231H816v143.231q0 27.782-20.301 48.083T747.616-144H604.385ZM144-604.385v-143.231q0-27.782 20.301-48.083T212.384-816h143.231v43.769H212.384q-9.23 0-16.923 7.692-7.692 7.693-7.692 16.923v143.231H144Zm628.231 0v-143.231q0-9.23-7.692-16.923-7.693-7.692-16.923-7.692H604.385V-816h143.231q27.782 0 48.083 20.301T816-747.616v143.231h-43.769Z"/></svg>